<?xml version="1.0" encoding="utf-8"?>
<!-- Generator: Adobe Illustrator 25.0.0, SVG Export Plug-In . SVG Version: 6.00 Build 0)  -->
<svg version="1.1" id="圖層_1" xmlns="http://www.w3.org/2000/svg" xmlns:xlink="http://www.w3.org/1999/xlink" x="0px" y="0px"
	 viewBox="0 0 155.91 42.52" style="enable-background:new 0 0 155.91 42.52;" xml:space="preserve">
<style type="text/css">
	.st0{fill:#1B2C76;}
	.st1{fill:url(#SVGID_1_);}
	.st2{fill:url(#SVGID_2_);}
	.st3{fill:#FFFFFF;}
</style>
<g>
	<path class="st0" d="M28.9,2.62v28.93h-18v-5.71H2.21v9.81c0,0,0.5,4.47,4.47,4.47s26.82,0,26.82,0s4.84,0.12,4.84-4.84
		s0-32.66,0-32.66H28.9z"/>
	<path class="st0" d="M76.84,2.62v8.32H53.62v21.23h27.81v7.95H50.88c0,0-7.51,0.37-7.51-7.51s0-21.3,0-21.3s0.12-8.91,8.91-8.91
		S76.84,2.62,76.84,2.62z"/>
	<path class="st0" d="M91.24,10.94v6.71h26.45v7.95H91.24v6.46h26.45v8.07H91.24v-8.07h-9.81V10.94c0,0,0.25-8.2,8.07-8.2
		s64.2,0,64.2,0v8.2h-13.04v29.18h-9.93V10.94H91.24z"/>
	<g>
		<g>
			<linearGradient id="SVGID_1_" gradientUnits="userSpaceOnUse" x1="135.6305" y1="39.9322" x2="135.6305" y2="11.7584">
				<stop  offset="0" style="stop-color:#48BFE5"/>
				<stop  offset="1" style="stop-color:#2559A8"/>
			</linearGradient>
			<path class="st1" d="M117.56,10.94h13.16v29.18h9.93V10.94h13.04v-8.2c0,0-18.76,0-36.13,0V10.94z"/>
		</g>
		<linearGradient id="SVGID_2_" gradientUnits="userSpaceOnUse" x1="117.5635" y1="6.8389" x2="153.6974" y2="6.8389">
			<stop  offset="0" style="stop-color:#D5549A"/>
			<stop  offset="1" style="stop-color:#7F308D"/>
		</linearGradient>
		<rect x="117.56" y="2.74" class="st2" width="36.13" height="8.2"/>
	</g>
</g>
</svg>
