<svg width="48" height="48" viewBox="0 0 48 48" fill="none" xmlns="http://www.w3.org/2000/svg">
<path d="M24 48C37.2548 48 48 37.2548 48 24C48 10.7452 37.2548 0 24 0C10.7452 0 0 10.7452 0 24C0 37.2548 10.7452 48 24 48Z" fill="white"/>
<path d="M12.8842 12.8821C13.3326 12.4336 13.638 11.8622 13.7617 11.2401C13.8854 10.618 13.8218 9.97319 13.5791 9.38721C13.3363 8.80124 12.9253 8.3004 12.3979 7.94803C11.8705 7.59567 11.2505 7.40759 10.6162 7.40759C9.98196 7.40759 9.36194 7.59567 8.83455 7.94803C8.30717 8.3004 7.89611 8.80124 7.65336 9.38721C7.41061 9.97319 7.34706 10.618 7.47076 11.2401C7.59445 11.8622 7.89983 12.4336 8.34828 12.8821C8.95001 13.4832 9.76573 13.8208 10.6162 13.8208C11.4667 13.8208 12.2824 13.4832 12.8842 12.8821ZM38.2317 24.0042C38.2317 23.643 38.0882 23.2965 37.8328 23.0411C37.5773 22.7857 37.2309 22.6422 36.8697 22.6422H26.9023C26.6178 22.0262 26.1433 21.5176 25.5486 21.191C24.8139 20.7974 23.9548 20.7051 23.1532 20.9336C22.3517 21.1621 21.6704 21.6935 21.2537 22.4154C20.837 23.1373 20.7176 23.993 20.9206 24.8014C21.1236 25.6098 21.6332 26.3075 22.3415 26.7469C22.7266 26.9792 23.1563 27.1278 23.6026 27.1832C24.0489 27.2385 24.5019 27.1993 24.932 27.0681C25.3622 26.9369 25.76 26.7167 26.0994 26.4217C26.4389 26.1267 26.7124 25.7635 26.9023 25.3558H35.4351C35.1469 27.7603 34.1074 30.0125 32.4647 31.7917C30.8219 33.5709 28.6596 34.7864 26.2858 35.2652C23.912 35.7439 21.4476 35.4614 19.2437 34.458C17.0397 33.4545 15.2086 31.7812 14.011 29.6764C12.8135 27.5716 12.3106 25.1426 12.574 22.7354C12.8373 20.3281 13.8535 18.0653 15.4778 16.2692C17.1022 14.4732 19.2518 13.2354 21.6206 12.7322C23.9893 12.229 26.4565 12.4861 28.6706 13.4668C28.9764 13.6044 29.3222 13.6243 29.6417 13.5225C29.9612 13.4207 30.2319 13.2045 30.4017 12.9153C30.4972 12.7527 30.5577 12.5719 30.5792 12.3846C30.6008 12.1972 30.5828 12.0074 30.5266 11.8274C30.4704 11.6473 30.3771 11.4811 30.2527 11.3393C30.1284 11.1974 29.9757 11.0832 29.8046 11.0039C27.0231 9.7644 23.9178 9.44808 20.9435 10.1013C17.9691 10.7545 15.2821 12.3429 13.276 14.6339C8.74631 19.8021 8.6012 27.6611 12.9505 32.9806C14.8028 35.2679 17.3188 36.9247 20.1519 37.7227C22.9849 38.5207 25.9957 38.4207 28.7696 37.4364C31.5434 36.4521 33.9439 34.6321 35.6403 32.2268C37.3367 29.8216 38.2457 26.9496 38.242 24.0063L38.2317 24.0042ZM39.6579 35.118C39.2092 34.6701 38.6377 34.3653 38.0158 34.2421C37.3939 34.1189 36.7494 34.1827 36.1637 34.4257C35.5781 34.6686 35.0776 35.0797 34.7255 35.6069C34.3734 36.1342 34.1855 36.754 34.1855 37.388C34.1855 38.022 34.3734 38.6418 34.7255 39.169C35.0776 39.6963 35.5781 40.1074 36.1637 40.3503C36.7494 40.5932 37.3939 40.6571 38.0158 40.5339C38.6377 40.4107 39.2092 40.1059 39.6579 39.658C39.9567 39.3603 40.1937 39.0065 40.3554 38.6169C40.5172 38.2274 40.6004 37.8098 40.6004 37.388C40.6004 36.9662 40.5172 36.5486 40.3554 36.159C40.1937 35.7695 39.9567 35.4157 39.6579 35.118Z" fill="#383838"/>
<path d="M24 5.23031C24.0011 5.40195 24.069 5.56642 24.1894 5.68875C24.3098 5.81108 24.4731 5.88163 24.6447 5.88541C29.2286 6.0424 33.582 7.93358 36.8252 11.1768C40.0685 14.42 41.9596 18.7734 42.1166 23.3573C42.1204 23.5287 42.191 23.6918 42.3134 23.8119C42.4358 23.932 42.6003 23.9994 42.7717 23.9999C42.8599 24.0005 42.9472 23.9834 43.0287 23.9496C43.1101 23.9158 43.1839 23.8661 43.2458 23.8032C43.3076 23.7404 43.3562 23.6658 43.3888 23.5839C43.4213 23.502 43.437 23.4143 43.4351 23.3262C43.2697 18.4033 41.2402 13.7271 37.7574 10.244C34.2747 6.7608 29.5987 4.73082 24.6758 4.56486C24.5874 4.56291 24.4995 4.57872 24.4173 4.61135C24.3351 4.64397 24.2603 4.69275 24.1973 4.75479C24.1343 4.81684 24.0844 4.89089 24.0505 4.97256C24.0166 5.05424 23.9994 5.14189 24 5.23031Z" fill="#383838"/>
<path d="M23.9999 42.7676C23.9989 42.5957 23.931 42.431 23.8107 42.3084C23.6904 42.1857 23.527 42.1147 23.3552 42.1104C18.772 41.9529 14.4194 40.0618 11.1767 36.8191C7.934 33.5764 6.04288 29.2238 5.88541 24.6406C5.88162 24.4692 5.811 24.306 5.68861 24.186C5.56622 24.0659 5.40176 23.9984 5.23031 23.9979C5.14189 23.9974 5.05424 24.0145 4.97256 24.0484C4.89089 24.0823 4.81684 24.1322 4.75479 24.1952C4.69275 24.2583 4.64397 24.3331 4.61135 24.4153C4.57872 24.4975 4.56291 24.5854 4.56486 24.6738C4.73131 29.5959 6.76122 34.2711 10.2439 37.7534C13.7266 41.2357 18.4019 43.265 23.3241 43.431C23.4124 43.4332 23.5003 43.4176 23.5825 43.3852C23.6646 43.3528 23.7395 43.3043 23.8025 43.2424C23.8656 43.1805 23.9155 43.1066 23.9494 43.025C23.9834 42.9435 24.0005 42.8559 23.9999 42.7676Z" fill="#383838"/>
<path d="M27.6693 47.7202C28.5851 47.5779 29.4918 47.3827 30.385 47.1356V35.5118H27.6693V47.7202Z" fill="#383838"/>
</svg>
